<svg data-v-423bf9ae="" xmlns="http://www.w3.org/2000/svg" viewBox="0 0 243.4869618489202 60" class="font"><!----><!----><!----><g data-v-423bf9ae="" id="2b025615-80a2-451c-873a-cfd5ae82e3ee" fill="black" transform="matrix(6.012023749356055,0,0,6.012023749356055,-2.5250522841063514,0.24048044918025724)"><path d="M4.56 0.17L1.88 0.17L1.88 0.17Q1.13 0.17 0.83 0.76L0.83 0.76L0.83 0.76Q1.01 0.64 1.22 0.64L1.22 0.64L1.22 0.64Q1.54 0.64 1.78 0.88L1.78 0.88L1.78 0.88Q2.02 1.11 2.02 1.44L2.02 1.44L2.02 1.44Q2.02 1.76 1.78 2.00L1.78 2.00L1.78 2.00Q1.54 2.24 1.22 2.24L1.22 2.24L1.22 2.24Q0.88 2.24 0.65 2.01L0.65 2.01L0.65 2.01Q0.42 1.78 0.42 1.44L0.42 1.44L0.42 1.44Q0.42 0.78 0.83 0.37L0.83 0.37L0.83 0.37Q1.25-0.04 1.90-0.04L1.90-0.04L10.26-0.04L10.26 0.17L6.16 0.17L6.16 9.62L7.50 9.62L7.50 9.83L3.22 9.83L3.22 9.62L4.56 9.62L4.56 0.17ZM20.71 4.37L19.32 4.37L16.48 9.94L14.41 5.87L12.33 9.94L9.49 4.37L8.11 4.37L8.11 4.14L16.55 4.14L16.55 4.37L15.27 4.37L17.18 8.12L19.08 4.37L17.79 4.37L17.79 4.14L20.71 4.14L20.71 4.37ZM14.28 5.63L13.65 4.37L11.12 4.37L13.02 8.12L14.28 5.63ZM27.48 9.83L24.56 9.83L24.56 9.53L24.56 9.53Q24.26 9.67 23.94 9.75L23.94 9.75L23.94 9.75Q23.62 9.83 23.30 9.83L23.30 9.83L23.30 9.83Q22.69 9.83 22.18 9.60L22.18 9.60L22.18 9.60Q21.66 9.38 21.27 8.99L21.27 8.99L21.27 8.99Q20.89 8.61 20.66 8.09L20.66 8.09L20.66 8.09Q20.44 7.57 20.44 6.99L20.44 6.99L20.44 6.99Q20.44 6.40 20.66 5.88L20.66 5.88L20.66 5.88Q20.89 5.36 21.27 4.98L21.27 4.98L21.27 4.98Q21.66 4.59 22.18 4.37L22.18 4.37L22.18 4.37Q22.71 4.14 23.30 4.14L23.30 4.14L23.30 4.14Q23.62 4.14 23.94 4.22L23.94 4.22L23.94 4.22Q24.26 4.30 24.56 4.44L24.56 4.44L24.56 4.14L26.14 4.14L26.14 9.62L27.48 9.62L27.48 9.83ZM24.56 8.36L24.56 5.61L24.56 5.61Q24.56 5.10 24.19 4.73L24.19 4.73L24.19 4.73Q23.81 4.37 23.30 4.37L23.30 4.37L23.30 4.37Q22.76 4.37 22.39 4.73L22.39 4.73L22.39 4.73Q22.02 5.10 22.02 5.63L22.02 5.63L22.02 8.36L22.02 8.36Q22.02 8.96 22.36 9.29L22.36 9.29L22.36 9.29Q22.69 9.62 23.30 9.62L23.30 9.62L23.30 9.62Q23.81 9.62 24.19 9.25L24.19 9.25L24.19 9.25Q24.56 8.89 24.56 8.36L24.56 8.36ZM30.00 2.94L30.00 2.94L30.00 2.94Q29.68 2.94 29.45 2.70L29.45 2.70L29.45 2.70Q29.22 2.46 29.22 2.14L29.22 2.14L29.22 2.14Q29.22 1.82 29.45 1.58L29.45 1.58L29.45 1.58Q29.68 1.34 30.00 1.34L30.00 1.34L30.00 1.34Q30.32 1.34 30.55 1.58L30.55 1.58L30.55 1.58Q30.79 1.82 30.79 2.14L30.79 2.14L30.79 2.14Q30.79 2.46 30.55 2.70L30.55 2.70L30.55 2.70Q30.32 2.94 30.00 2.94ZM32.10 9.83L27.90 9.83L27.90 9.62L29.22 9.62L29.22 4.31L27.90 4.31L27.90 4.10L30.79 4.10L30.79 9.62L32.10 9.62L32.10 9.83ZM40.92 9.83L36.65 9.83L36.65 9.62L38.00 9.62L38.00 4.37L38.00 4.37Q37.66 4.38 37.31 4.50L37.31 4.50L37.31 4.50Q36.96 4.62 36.62 4.80L36.62 4.80L36.62 4.80Q36.29 4.98 35.99 5.21L35.99 5.21L35.99 5.21Q35.69 5.45 35.45 5.67L35.45 5.67L35.45 9.83L32.52 9.83L32.52 9.62L33.87 9.62L33.87 4.37L32.52 4.37L32.52 4.14L35.45 4.14L35.45 5.38L35.45 5.38Q35.71 5.15 36.03 4.93L36.03 4.93L36.03 4.93Q36.34 4.70 36.69 4.53L36.69 4.53L36.69 4.53Q37.03 4.35 37.39 4.25L37.39 4.25L37.39 4.25Q37.74 4.14 38.09 4.14L38.09 4.14L38.09 4.14Q38.75 4.14 39.16 4.56L39.16 4.56L39.16 4.56Q39.58 4.97 39.58 5.63L39.58 5.63L39.58 9.62L40.92 9.62L40.92 9.83Z"></path></g><!----><!----></svg>